#!OML:ASF F:\VICON\USERDATA\INSTALL\rory3\rory3.ASF
:FULLY-SPECIFIED
:DEGREES
63
root 0.619122 18.9128 -2.52613 5.57189 -3.32804 -7.53249
lowerback 12.7233 1.57554 7.63152
upperback 0.746144 3.21462 0.547263
thorax -5.96569 1.37531 -4.28022
lowerneck -7.85825 -0.775447 -0.688585
upperneck -6.36207 -0.939619 1.27974
head -0.653197 -0.455441 0.485287
rclavicle -1.04859e-014 -4.77083e-015
rhumerus -30.3983 24.5041 -88.0718
rradius 110.887
rwrist -1.70607
rhand -43.6601 36.1992
rfingers 7.12502
rthumb -16.494 6.88028
lclavicle -1.04859e-014 -4.77083e-015
lhumerus -62.5903 -3.40151 90.7833
lradius 104.082
lwrist 25.9924
lhand -37.4895 10.9557
lfingers 7.12502
lthumb -10.5468 40.6711
rfemur 26.164 8.77936 35.1871
rtibia 16.6469
rfoot 33.4137 -3.34812
rtoes 19.7408
lfemur -40.0235 -7.78939 -5.87058
ltibia 36.9715
lfoot 11.4715 -3.81315
ltoes -16.1899
64
root 0.610728 18.9203 -1.98717 5.42647 -3.06336 -7.93856
lowerback 12.9538 1.45904 7.67685
upperback 0.8159 3.093 0.684731
thorax -6.04095 1.31443 -4.14894
lowerneck -8.23026 -0.802367 -0.546308
upperneck -6.40902 -0.991054 1.05647
head -0.610073 -0.482969 0.391262
rclavicle 5.46658e-015 1.63003e-014
rhumerus -30.7136 24.7593 -88.0317
rradius 109.766
rwrist -1.83957
rhand -42.9716 38.5594
rfingers 7.12502
rthumb -15.831 9.18666
lclavicle 5.46658e-015 1.63003e-014
lhumerus -62.1098 -2.9559 90.3763
lradius 104.116
lwrist 26.1899
lhand -37.6253 10.6906
lfingers 7.12502
lthumb -10.6779 40.3993
rfemur 25.1327 9.06513 36.1499
rtibia 21.1408
rfoot 32.0544 -4.20732
rtoes 20.4614
lfemur -38.5147 -8.97889 -4.99047
ltibia 32.2078
lfoot 11.3727 -1.56245
ltoes -15.3617
65
root 0.603143 18.9243 -1.43487 5.37856 -3.4434 -8.35257
lowerback 12.814 1.58191 7.68689
upperback 0.934765 3.24057 0.737718
thorax -5.81979 1.3998 -4.11233
lowerneck -8.38308 -0.796728 -0.400048
upperneck -6.63241 -0.995143 0.979692
head -0.655544 -0.488059 0.344081
rclavicle 5.03919e-014 1.31198e-014
rhumerus -31.1361 24.9542 -88.1329
rradius 108.473
rwrist -1.75842
rhand -42.8139 38.786
rfingers 7.12502
rthumb -15.6792 9.40125
lclavicle 5.03919e-014 1.31198e-014
lhumerus -61.4195 -2.69784 89.9218
lradius 104.026
lwrist 26.3315
lhand -37.2346 9.88303
lfingers 7.12502
lthumb -10.3009 39.6108
rfemur 24.0454 8.87054 36.4476
rtibia 25.4594
rfoot 32.206 -4.16934
rtoes 18.0617
lfemur -37.0039 -9.57196 -4.29773
ltibia 28.3475
lfoot 10.9943 0.253705
ltoes -17.8728
66
root 0.591661 18.914 -0.887245 5.32155 -3.65312 -8.4102
lowerback 12.5781 1.67593 7.36546
upperback 1.07851 3.28658 0.677179
thorax -5.54278 1.4455 -3.988
lowerneck -8.5516 -0.797304 -0.448613
upperneck -6.79507 -0.981578 1.24702
head -0.67725 -0.480221 0.433888
rclavicle 3.67752e-015 7.95139e-016
rhumerus -31.8535 24.871 -88.3859
rradius 107.234
rwrist -1.6778
rhand -43.3501 38.5146
rfingers 7.12502
rthumb -16.1955 9.17113
lclavicle 3.67752e-015 7.95139e-016
lhumerus -60.3558 -2.63338 89.4858
lradius 103.666
lwrist 26.3556
lhand -37.5986 9.61126
lfingers 7.12502
lthumb -10.6521 39.3213
rfemur 22.8568 8.48253 36.3498
rtibia 29.8369
rfoot 33.2871 -4.53936
rtoes 16.0882
lfemur -35.8847 -10.3544 -3.96925
ltibia 25.4138
lfoot 10.7196 3.04471
ltoes -17.1301
67
root 0.579213 18.906 -0.35992 5.31815 -3.21899 -8.50952
lowerback 12.3811 1.55213 7.27044
upperback 1.24127 3.08325 0.66587
thorax -5.28821 1.36277 -3.9011
lowerneck -8.87859 -0.840071 -0.626029
upperneck -6.7881 -1.01222 1.58801
head -0.620186 -0.49044 0.565752
rclavicle -5.06901e-015 -1.86858e-014
rhumerus -32.5676 24.482 -88.5732
rradius 106.062
rwrist -1.85738
rhand -44.1662 38.4625
rfingers 7.12502
rthumb -16.9812 9.18478
lclavicle -5.06901e-015 -1.86858e-014
lhumerus -59.0623 -2.76852 89.1474
lradius 103.428
lwrist 26.5219
lhand -37.5043 10.2364
lfingers 7.12502
lthumb -10.5611 39.9511
rfemur 21.2646 7.69766 36.4526
rtibia 34.3002
rfoot 33.8004 -5.70316
rtoes 15.4681
lfemur -34.7964 -10.1387 -4.36485
ltibia 23.4244
lfoot 10.3857 4.80979
ltoes -17.9407
68
root 0.576644 18.8746 0.172539 5.21107 -2.67022 -8.34558
lowerback 12.225 1.37941 7.04355
upperback 1.42778 2.79519 0.554275
thorax -5.04195 1.23986 -3.83593
lowerneck -9.11334 -0.867225 -0.519912
upperneck -6.75432 -1.05474 1.66542
head -0.572296 -0.512933 0.570086
rclavicle 9.0447e-015 3.97569e-015
rhumerus -33.5391 23.8255 -88.8288
rradius 104.946
rwrist -2.33176
rhand -43.8409 37.3914
rfingers 7.12502
rthumb -16.668 8.08701
lclavicle 9.0447e-015 3.97569e-015
lhumerus -57.7765 -3.08913 88.7815
lradius 103.363
lwrist 26.6722
lhand -37.5322 11.3218
lfingers 7.12502
lthumb -10.588 41.035
rfemur 19.6009 6.75659 36.2261
rtibia 38.9714
rfoot 33.5429 -6.50432
rtoes 13.8041
lfemur -33.8267 -9.73495 -5.33844
ltibia 21.9712
lfoot 9.68397 5.5489
ltoes -21.6264
69
root 0.575852 18.8184 0.708354 4.74217 -1.68806 -8.04023
lowerback 12.4053 1.04112 6.80787
upperback 1.67537 2.31353 0.446609
thorax -4.93946 1.01676 -3.74491
lowerneck -9.12218 -0.885186 -0.771973
upperneck -7.00753 -1.04154 2.04011
head -0.645297 -0.501306 0.729041
rclavicle 1.98785e-016 -1.19271e-015
rhumerus -34.3473 23.1778 -88.8886
rradius 103.355
rwrist -3.04131
rhand -42.5486 35.6822
rfingers 7.12502
rthumb -15.4236 6.2776
lclavicle 1.98785e-016 -1.19271e-015
lhumerus -56.2384 -3.51653 88.5554
lradius 103.051
lwrist 27.0347
lhand -38.5549 12.496
lfingers 7.12502
lthumb -11.5744 42.1563
rfemur 18.079 5.38124 35.9661
rtibia 43.8687
rfoot 33.805 -7.62096
rtoes 12.9041
lfemur -32.677 -9.27142 -6.80468
ltibia 21.0686
lfoot 9.63862 5.72658
ltoes -25.4188
70
root 0.574063 18.7507 1.24655 4.16197 -1.03535 -7.39069
lowerback 12.7313 0.799917 6.18888
upperback 1.84283 1.91499 0.198992
thorax -4.99911 0.832022 -3.60279
lowerneck -8.88287 -0.841826 -1.11399
upperneck -7.25343 -0.931287 2.64792
head -0.756352 -0.440968 0.980666
rclavicle 1.799e-014 -5.56597e-015
rhumerus -35.1418 22.5404 -89.0586
rradius 101.348
rwrist -3.65348
rhand -41.9968 34.843
rfingers 7.12502
rthumb -14.8921 5.39827
lclavicle 1.799e-014 -5.56597e-015
lhumerus -54.706 -4.13714 88.1643
lradius 102.655
lwrist 27.5774
lhand -38.4538 12.8039
lfingers 7.12502
lthumb -11.4769 42.4698
rfemur 16.507 4.1758 35.2334
rtibia 48.9946
rfoot 34.3814 -8.17455
rtoes 14.5749
lfemur -31.0577 -8.35986 -8.80785
ltibia 20.2633
lfoot 9.61984 6.91894
ltoes -23.4776
71
root 0.572423 18.6764 1.785 3.54876 -1.17834 -6.74774
lowerback 13.2019 0.857112 5.37627
upperback 1.96626 1.88997 -0.049092
thorax -5.14933 0.829965 -3.4147
lowerneck -8.58325 -0.85766 -1.1513
upperneck -7.28191 -0.941657 2.90073
head -0.811699 -0.448117 1.06777
rclavicle -3.44891e-014 2.14687e-014
rhumerus -36.3422 21.6401 -89.2408
rradius 99.5653
rwrist -4.24199
rhand -41.7852 33.7816
rfingers 7.12502
rthumb -14.6882 4.32188
lclavicle -3.44891e-014 2.14687e-014
lhumerus -53.3498 -4.80702 87.9112
lradius 102.584
lwrist 28.2303
lhand -37.7457 12.0247
lfingers 7.12502
lthumb -10.794 41.7273
rfemur 14.8643 3.45473 34.2097
rtibia 54.2497
rfoot 34.452 -7.57696
rtoes 17.9692
lfemur -29.08 -6.92942 -10.755
ltibia 19.7221
lfoot 9.14588 7.981
ltoes -18.0139
72
root 0.566838 18.5934 2.31594 2.93152 -1.17315 -6.01923
lowerback 13.7358 0.889534 4.43932
upperback 2.14771 1.80938 -0.257377
thorax -5.28219 0.804996 -3.10474
lowerneck -8.54082 -0.928639 -1.16834
upperneck -7.2864 -1.03633 2.87728
head -0.817973 -0.49545 1.06171
rclavicle -8.74653e-015 -3.18055e-015
rhumerus -37.4662 20.505 -89.2375
rradius 97.9184
rwrist -4.89077
rhand -41.6484 34.4755
rfingers 7.12502
rthumb -14.5564 5.00624
lclavicle -8.74653e-015 -3.18055e-015
lhumerus -51.8343 -5.50633 87.7884
lradius 102.703
lwrist 28.7507
lhand -37.6205 12.1253
lfingers 7.12502
lthumb -10.6732 41.8342
rfemur 13.0866 2.60351 33.0421
rtibia 59.5277
rfoot 33.5865 -7.27393
rtoes 19.4573
lfemur -27.1985 -5.57951 -12.7153
ltibia 19.6928
lfoot 9.83568 6.14679
ltoes -20.5956
73
root 0.564931 18.4884 2.84776 2.34861 -0.830319 -5.02623
lowerback 14.0912 0.807375 3.3795
upperback 2.31859 1.53854 -0.537979
thorax -5.3405 0.690227 -2.76081
lowerneck -8.21667 -0.963701 -1.27487
upperneck -7.54702 -1.06912 2.95408
head -0.950158 -0.513435 1.10692
rclavicle -2.26615e-014 2.14687e-014
rhumerus -38.466 19.4436 -89.1226
rradius 96.2403
rwrist -5.59157
rhand -41.9965 36.364
rfingers 7.12502
rthumb -14.8918 6.91928
lclavicle -2.26615e-014 2.14687e-014
lhumerus -50.016 -6.27528 87.6236
lradius 102.617
lwrist 29.3149
lhand -38.1682 12.6484
lfingers 7.12502
lthumb -11.2015 42.3294
rfemur 11.4726 1.40051 31.4453
rtibia 64.6723
rfoot 32.4925 -7.33654
rtoes 20.4537
lfemur -25.6135 -4.52539 -14.8767
ltibia 20.4298
lfoot 10.0266 3.82266
ltoes -17.3517
